<svg width="16" height="17" viewBox="0 0 16 17" fill="none" xmlns="http://www.w3.org/2000/svg">
<g clip-path="url(#clip0_244_4288)">
<path d="M5.90054 12.3C7.0721 13.4716 8.9716 13.4716 10.1432 12.3L10.1432 12.3L12.2846 10.1587C12.6818 9.77497 12.6928 9.14191 12.3091 8.74466C11.9254 8.34741 11.2924 8.33641 10.8951 8.72009C10.8868 8.72812 10.8786 8.73634 10.8706 8.74466L9.01523 10.5993L8.99988 1.5C8.99988 0.947719 8.55216 0.5 7.99988 0.5C7.4476 0.5 6.99988 0.947719 6.99988 1.5L7.01388 10.5847L5.17323 8.744C4.77598 8.36031 4.14291 8.37131 3.75923 8.76856C3.38495 9.15609 3.38495 9.77047 3.75923 10.158L5.90054 12.3Z" fill="#FFF3F1"/>
<path d="M15 10.1667C14.4477 10.1667 14 10.6145 14 11.1667V14.2274C13.9996 14.3778 13.8778 14.4997 13.7273 14.5001H2.27266C2.12222 14.4997 2.00034 14.3778 2 14.2274V11.1667C2 10.6145 1.55228 10.1667 1 10.1667C0.447719 10.1667 0 10.6145 0 11.1667V14.2274C0.00146875 15.482 1.01812 16.4986 2.27266 16.5001H13.7273C14.9819 16.4986 15.9985 15.482 16 14.2274V11.1668C16 10.6145 15.5523 10.1667 15 10.1667Z" fill="#FFF3F1"/>
</g>
<defs>
<clipPath id="clip0_244_4288">
<rect width="16" height="16" fill="white" transform="translate(0 0.5)"/>
</clipPath>
</defs>
</svg>
