<svg width="14" height="15" viewBox="0 0 14 15" fill="none" xmlns="http://www.w3.org/2000/svg">
<path d="M13.314 1.186C12.8681 0.759963 12.2752 0.522217 11.6585 0.522217C11.0418 0.522217 10.4489 0.759963 10.003 1.186L0.939759 10.2492C0.64104 10.5463 0.40418 10.8997 0.242876 11.2889C0.0815725 11.6781 -0.000974505 12.0954 8.68035e-06 12.5167V13.625C8.68035e-06 13.8571 0.0921959 14.0796 0.25629 14.2437C0.420385 14.4078 0.642944 14.5 0.875009 14.5H1.98334C2.40483 14.5011 2.82236 14.4187 3.21176 14.2574C3.60117 14.096 3.95471 13.8591 4.25192 13.5602L13.314 4.497C13.7524 4.0576 13.9987 3.46222 13.9987 2.8415C13.9987 2.22078 13.7524 1.6254 13.314 1.186ZM3.01351 12.323C2.73957 12.5952 2.3695 12.7486 1.98334 12.75H1.75001V12.5167C1.75121 12.1301 1.90461 11.7596 2.17701 11.4853L8.92501 4.73908L9.76093 5.575L3.01351 12.323ZM12.075 3.25975L10.9982 4.33833L10.1617 3.50183L11.2408 2.425C11.3534 2.31742 11.5031 2.25739 11.6588 2.25739C11.8145 2.25739 11.9642 2.31742 12.0768 2.425C12.1868 2.53616 12.2483 2.68634 12.248 2.84274C12.2477 2.99913 12.1855 3.14905 12.075 3.25975Z" fill="#F9533A"/>
</svg>
