<svg width="20" height="20" viewBox="0 0 20 20" fill="none" xmlns="http://www.w3.org/2000/svg">
<path d="M11.967 3.39823L12.7394 2.62583C14.0192 1.34608 16.0941 1.34608 17.3738 2.62583C18.6536 3.90558 18.6536 5.98047 17.3738 7.26023L16.6014 8.03263M11.967 3.39823C11.967 3.39823 12.0636 5.03958 13.5118 6.48783C14.9601 7.93608 16.6014 8.03263 16.6014 8.03263M11.967 3.39823L4.86601 10.4993C4.38504 10.9802 4.14456 11.2207 3.93774 11.4859C3.69377 11.7987 3.4846 12.1371 3.31394 12.4952C3.16927 12.7988 3.06172 13.1214 2.84663 13.7667L1.93517 16.5011M16.6014 8.03263L9.50041 15.1337C9.01944 15.6146 8.77896 15.8551 8.5138 16.0619C8.20101 16.3059 7.86257 16.5151 7.50447 16.6857C7.20091 16.8304 6.87826 16.938 6.23298 17.153L3.49859 18.0645M3.49859 18.0645L2.83019 18.2873C2.51264 18.3932 2.16254 18.3105 1.92585 18.0738C1.68916 17.8371 1.60652 17.487 1.71237 17.1695L1.93517 16.5011M3.49859 18.0645L1.93517 16.5011" stroke="#F9533A" stroke-width="1.5"/>
</svg>
