<svg width="18" height="21" viewBox="0 0 18 21" fill="none" xmlns="http://www.w3.org/2000/svg">
<path fill-rule="evenodd" clip-rule="evenodd" d="M1.17157 1.67157C0 2.84315 0 4.72876 0 8.5V12.5C0 16.2712 0 18.1569 1.17157 19.3284C2.34315 20.5 4.22876 20.5 8 20.5H10C13.7712 20.5 15.6569 20.5 16.8284 19.3284C18 18.1569 18 16.2712 18 12.5V8.5C18 4.72876 18 2.84315 16.8284 1.67157C15.6569 0.5 13.7712 0.5 10 0.5H8C4.22876 0.5 2.34315 0.5 1.17157 1.67157ZM5 7.75C4.58579 7.75 4.25 8.08579 4.25 8.5C4.25 8.91421 4.58579 9.25 5 9.25H13C13.4142 9.25 13.75 8.91421 13.75 8.5C13.75 8.08579 13.4142 7.75 13 7.75H5ZM5 11.75C4.58579 11.75 4.25 12.0858 4.25 12.5C4.25 12.9142 4.58579 13.25 5 13.25H10C10.4142 13.25 10.75 12.9142 10.75 12.5C10.75 12.0858 10.4142 11.75 10 11.75H5Z" fill="#F9533A"/>
</svg>
