<svg width="24" height="25" viewBox="0 0 24 25" fill="none" xmlns="http://www.w3.org/2000/svg">
<g id="Bold / Notes / Document">
<path id="Vector" fill-rule="evenodd" clip-rule="evenodd" d="M4.17157 3.67157C3 4.84315 3 6.72876 3 10.5V14.5C3 18.2712 3 20.1569 4.17157 21.3284C5.34315 22.5 7.22876 22.5 11 22.5H13C16.7712 22.5 18.6569 22.5 19.8284 21.3284C21 20.1569 21 18.2712 21 14.5V10.5C21 6.72876 21 4.84315 19.8284 3.67157C18.6569 2.5 16.7712 2.5 13 2.5H11C7.22876 2.5 5.34315 2.5 4.17157 3.67157ZM8 9.75C7.58579 9.75 7.25 10.0858 7.25 10.5C7.25 10.9142 7.58579 11.25 8 11.25H16C16.4142 11.25 16.75 10.9142 16.75 10.5C16.75 10.0858 16.4142 9.75 16 9.75H8ZM8 13.75C7.58579 13.75 7.25 14.0858 7.25 14.5C7.25 14.9142 7.58579 15.25 8 15.25H13C13.4142 15.25 13.75 14.9142 13.75 14.5C13.75 14.0858 13.4142 13.75 13 13.75H8Z" fill="#F9533A"/>
</g>
</svg>
