<svg width="20" height="20" viewBox="0 0 20 20" fill="none" xmlns="http://www.w3.org/2000/svg">
<g id="fi-br-angle-small-down">
<path id="Vector" d="M15.8843 6.54499C15.7683 6.42883 15.6304 6.33668 15.4787 6.27382C15.327 6.21095 15.1644 6.17859 15.0002 6.17859C14.836 6.17859 14.6734 6.21095 14.5216 6.27382C14.3699 6.33668 14.2321 6.42883 14.116 6.54499L10.2943 10.3658C10.2162 10.4439 10.1103 10.4878 9.99977 10.4878C9.88928 10.4878 9.78332 10.4439 9.70518 10.3658L5.88435 6.54499C5.64996 6.31049 5.33203 6.17871 5.00048 6.17863C4.66893 6.17855 4.35093 6.31019 4.11643 6.54457C3.88194 6.77896 3.75015 7.0969 3.75008 7.42844C3.75 7.75999 3.88163 8.07799 4.11602 8.31249L7.93768 12.1342C8.20852 12.405 8.53007 12.6199 8.88395 12.7665C9.23784 12.9131 9.61713 12.9885 10.0002 12.9885C10.3832 12.9885 10.7625 12.9131 11.1164 12.7665C11.4703 12.6199 11.7918 12.405 12.0627 12.1342L15.8843 8.31249C16.1187 8.07808 16.2503 7.76019 16.2503 7.42874C16.2503 7.09728 16.1187 6.7794 15.8843 6.54499Z" fill="#383842"/>
</g>
</svg>
