<svg width="25" height="25" viewBox="0 0 25 25" fill="none" xmlns="http://www.w3.org/2000/svg">
<g id="Bold / Users / User Hand Up">
<g id="Vector">
<path d="M12.5 10.5C14.7091 10.5 16.5 8.70914 16.5 6.5C16.5 4.29086 14.7091 2.5 12.5 2.5C10.2909 2.5 8.5 4.29086 8.5 6.5C8.5 8.70914 10.2909 10.5 12.5 10.5Z" fill="#F9533A"/>
<path d="M3.22778 6.31803C3.12732 5.91619 2.72012 5.67186 2.31828 5.77233C1.91643 5.87279 1.67211 6.27999 1.77257 6.68184L2.15454 8.2097C2.8593 11.0287 4.99604 13.2495 7.75018 14.0787L7.75018 18.5519C7.75015 19.4504 7.75012 20.1996 7.83009 20.7944C7.91449 21.4222 8.10016 21.989 8.55563 22.4445C9.0111 22.8999 9.5779 23.0856 10.2057 23.17C10.8005 23.25 11.5497 23.25 12.4482 23.2499H12.5522C13.4507 23.25 14.1999 23.25 14.7947 23.17C15.4225 23.0856 15.9892 22.8999 16.4447 22.4445C16.9002 21.989 17.0859 21.4222 17.1703 20.7944C17.2502 20.1996 17.2502 19.4504 17.2502 18.552L17.2502 14.359C18.2313 14.6514 18.9808 15.5039 19.1058 16.567L19.7553 22.0876C19.8037 22.4989 20.1764 22.7932 20.5878 22.7448C20.9992 22.6964 21.2934 22.3237 21.245 21.9123L20.5956 16.3918C20.3512 14.315 18.5912 12.7499 16.5002 12.7499H8.5847C6.14125 12.1764 4.21957 10.2852 3.60975 7.8459L3.22778 6.31803Z" fill="#F9533A"/>
</g>
</g>
</svg>
