<svg width="25" height="25" viewBox="0 0 25 25" fill="none" xmlns="http://www.w3.org/2000/svg">
<g id="Bold / Essentional, UI / Close Circle">
<path id="Vector" fill-rule="evenodd" clip-rule="evenodd" d="M22.75 12.5C22.75 18.0228 18.2728 22.5 12.75 22.5C7.22715 22.5 2.75 18.0228 2.75 12.5C2.75 6.97715 7.22715 2.5 12.75 2.5C18.2728 2.5 22.75 6.97715 22.75 12.5ZM9.71963 9.46965C10.0125 9.17676 10.4874 9.17676 10.7803 9.46965L12.75 11.4393L14.7196 9.46967C15.0125 9.17678 15.4874 9.17678 15.7803 9.46967C16.0732 9.76256 16.0732 10.2374 15.7803 10.5303L13.8106 12.5L15.7803 14.4696C16.0732 14.7625 16.0732 15.2374 15.7803 15.5303C15.4874 15.8232 15.0125 15.8232 14.7196 15.5303L12.75 13.5607L10.7803 15.5303C10.4874 15.8232 10.0125 15.8232 9.71965 15.5303C9.42676 15.2374 9.42676 14.7625 9.71965 14.4697L11.6893 12.5L9.71963 10.5303C9.42673 10.2374 9.42673 9.76254 9.71963 9.46965Z" fill="#F9533A"/>
</g>
</svg>
