<svg width="24" height="25" viewBox="0 0 24 25" fill="none" xmlns="http://www.w3.org/2000/svg">
<g id="Bold / Users / User Speak">
<g id="Vector">
<path d="M18.3569 2.11412C18.57 1.75893 19.0307 1.64376 19.3859 1.85687L19 2.49999C19.3859 1.85687 19.3855 1.85667 19.3859 1.85687L19.3873 1.85771L19.3888 1.85866L19.3925 1.86091L19.4021 1.86683C19.4095 1.8714 19.4187 1.87724 19.4297 1.88436C19.4517 1.89859 19.4808 1.91797 19.516 1.9426C19.5863 1.99182 19.6813 2.06232 19.7926 2.15508C20.0147 2.34016 20.3052 2.61666 20.5945 2.99271C21.1773 3.75044 21.75 4.90734 21.75 6.49999C21.75 8.09265 21.1773 9.24954 20.5945 10.0073C20.3052 10.3833 20.0147 10.6598 19.7926 10.8449C19.6813 10.9377 19.5863 11.0082 19.516 11.0574C19.4808 11.082 19.4517 11.1014 19.4297 11.1156C19.4242 11.1192 19.4192 11.1224 19.4146 11.1253C19.41 11.1283 19.4058 11.1309 19.4021 11.1332L19.3925 11.1391L19.3888 11.1413L19.3873 11.1423C19.3869 11.1425 19.3859 11.1431 19 10.5L19.3859 11.1431C19.0307 11.3562 18.57 11.241 18.3569 10.8859C18.1447 10.5322 18.258 10.0739 18.6097 9.85958L18.6152 9.85604C18.6225 9.85133 18.6363 9.84219 18.6558 9.82854C18.6949 9.80119 18.7562 9.75607 18.8324 9.69258C18.9853 9.56516 19.1948 9.36666 19.4055 9.09271C19.8227 8.55044 20.25 7.70734 20.25 6.49999C20.25 5.29264 19.8227 4.44954 19.4055 3.90727C19.1948 3.63332 18.9853 3.43482 18.8324 3.30741C18.7562 3.24391 18.6949 3.19879 18.6558 3.17145C18.6363 3.1578 18.6225 3.14866 18.6152 3.14394L18.6097 3.14041C18.258 2.92613 18.1447 2.46781 18.3569 2.11412Z" fill="#F9533A"/>
<path d="M10 10.5C12.2091 10.5 14 8.70913 14 6.49999C14 4.29085 12.2091 2.49999 10 2.49999C7.79086 2.49999 6 4.29085 6 6.49999C6 8.70913 7.79086 10.5 10 10.5Z" fill="#F9533A"/>
<path d="M2 18C2 20.4853 2 22.5 10 22.5C18 22.5 18 20.4853 18 18C18 15.5147 14.4183 13.5 10 13.5C5.58172 13.5 2 15.5147 2 18Z" fill="#F9533A"/>
<path d="M17.3859 3.85687C17.0307 3.64376 16.57 3.75893 16.3569 4.11412L16.6051 5.13761L16.6129 5.14293C16.6246 5.15113 16.6468 5.16735 16.6761 5.19178C16.7353 5.24107 16.8198 5.32082 16.9055 5.43227C17.0727 5.64954 17.25 5.99264 17.25 6.49999C17.25 7.00734 17.0727 7.35044 16.9055 7.56771C16.8198 7.67916 16.7353 7.75891 16.6761 7.8082C16.6468 7.83263 16.6246 7.84885 16.6129 7.85705L16.6051 7.86237C16.257 8.07782 16.1456 8.5337 16.3569 8.88586C16.57 9.24105 17.0307 9.35622 17.3859 9.14311L17 8.49999C17.3859 9.14311 17.3855 9.14331 17.3859 9.14311L17.3872 9.1423L17.3887 9.14144L17.3918 9.13951L17.3993 9.13492L17.4185 9.1227C17.4332 9.11321 17.4515 9.10096 17.4731 9.0859C17.516 9.05582 17.572 9.01423 17.6364 8.96053C17.7647 8.85357 17.9302 8.69582 18.0945 8.48227C18.4273 8.04954 18.75 7.39264 18.75 6.49999C18.75 5.60734 18.4273 4.95044 18.0945 4.51771C17.9302 4.30416 17.7647 4.14641 17.6364 4.03945C17.572 3.98576 17.516 3.94416 17.4731 3.91408C17.4515 3.89902 17.4332 3.88678 17.4185 3.87728L17.3993 3.86507L17.3918 3.86047L17.3887 3.85855L17.3872 3.85768C17.3869 3.85748 17.3859 3.85687 17 4.49999L17.3859 3.85687Z" fill="#F9533A"/>
</g>
</g>
</svg>
