<svg width="21" height="21" viewBox="0 0 21 21" fill="none" xmlns="http://www.w3.org/2000/svg">
<path fill-rule="evenodd" clip-rule="evenodd" d="M20.5 10.5C20.5 16.0228 16.0228 20.5 10.5 20.5C4.97715 20.5 0.5 16.0228 0.5 10.5C0.5 4.97715 4.97715 0.5 10.5 0.5C16.0228 0.5 20.5 4.97715 20.5 10.5ZM14.5303 7.46967C14.8232 7.76256 14.8232 8.23744 14.5303 8.53033L9.53033 13.5303C9.23744 13.8232 8.76256 13.8232 8.46967 13.5303L6.46967 11.5303C6.17678 11.2374 6.17678 10.7626 6.46967 10.4697C6.76256 10.1768 7.23744 10.1768 7.53033 10.4697L9 11.9393L11.2348 9.7045L13.4697 7.46967C13.7626 7.17678 14.2374 7.17678 14.5303 7.46967Z" fill="#F9533A"/>
</svg>
