<svg width="21" height="21" viewBox="0 0 21 21" fill="none" xmlns="http://www.w3.org/2000/svg">
<path fill-rule="evenodd" clip-rule="evenodd" d="M20.75 10.5C20.75 16.0228 16.2728 20.5 10.75 20.5C5.22715 20.5 0.75 16.0228 0.75 10.5C0.75 4.97715 5.22715 0.5 10.75 0.5C16.2728 0.5 20.75 4.97715 20.75 10.5ZM7.71963 7.46965C8.01252 7.17676 8.48739 7.17676 8.78029 7.46965L10.75 9.43933L12.7196 7.46967C13.0125 7.17678 13.4874 7.17678 13.7803 7.46967C14.0732 7.76256 14.0732 8.23744 13.7803 8.53033L11.8106 10.5L13.7803 12.4696C14.0732 12.7625 14.0732 13.2374 13.7803 13.5303C13.4874 13.8232 13.0125 13.8232 12.7196 13.5303L10.75 11.5607L8.78031 13.5303C8.48742 13.8232 8.01254 13.8232 7.71965 13.5303C7.42676 13.2374 7.42676 12.7625 7.71965 12.4697L9.68931 10.5L7.71963 8.53031C7.42673 8.23742 7.42673 7.76254 7.71963 7.46965Z" fill="#F9533A"/>
</svg>
