<svg width="16" height="16" viewBox="0 0 16 16" fill="none" xmlns="http://www.w3.org/2000/svg">
<path d="M1.16699 6.66625V9.33292C1.16699 11.2185 1.16699 12.1613 1.75278 12.7471C1.89767 12.892 2.0644 13.0011 2.26185 13.0832C2.25737 13.0535 2.25314 13.0238 2.24913 12.994C2.1669 12.3823 2.16694 11.6185 2.16699 10.732L2.16699 5.33288L2.16699 5.26705V5.26705C2.16694 4.38056 2.1669 3.61675 2.24913 3.00509C2.25313 2.97534 2.25736 2.94565 2.26183 2.91602C2.0644 2.99809 1.89767 3.10715 1.75278 3.25204C1.16699 3.83782 1.16699 4.78063 1.16699 6.66625Z" fill="#556EA2"/>
<path d="M14.5003 6.66625V9.33292C14.5003 11.2185 14.5003 12.1613 13.9145 12.7471C13.7696 12.892 13.6029 13.0011 13.4055 13.0832C13.4099 13.0535 13.4142 13.0238 13.4182 12.994C13.5004 12.3823 13.5004 11.6185 13.5003 10.732V5.26706C13.5004 4.38057 13.5004 3.61675 13.4182 3.00509C13.4142 2.97534 13.41 2.94565 13.4055 2.91602C13.6029 2.99809 13.7696 3.10715 13.9145 3.25204C14.5003 3.83782 14.5003 4.78063 14.5003 6.66625Z" fill="#556EA2"/>
<path fill-rule="evenodd" clip-rule="evenodd" d="M3.75278 1.91977C3.16699 2.50556 3.16699 3.44837 3.16699 5.33398V10.6673C3.16699 12.5529 3.16699 13.4957 3.75278 14.0815C4.33856 14.6673 5.28137 14.6673 7.16699 14.6673H8.50033C10.3859 14.6673 11.3288 14.6673 11.9145 14.0815C12.5003 13.4957 12.5003 12.5529 12.5003 10.6673V5.33398C12.5003 3.44837 12.5003 2.50556 11.9145 1.91977C11.3288 1.33398 10.3859 1.33398 8.50033 1.33398H7.16699C5.28137 1.33398 4.33856 1.33398 3.75278 1.91977ZM5.33366 11.334C5.33366 11.0578 5.55752 10.834 5.83366 10.834H7.83366C8.1098 10.834 8.33366 11.0578 8.33366 11.334C8.33366 11.6101 8.1098 11.834 7.83366 11.834H5.83366C5.55752 11.834 5.33366 11.6101 5.33366 11.334ZM5.83366 8.16732C5.55752 8.16732 5.33366 8.39118 5.33366 8.66732C5.33366 8.94346 5.55752 9.16732 5.83366 9.16732H9.83366C10.1098 9.16732 10.3337 8.94346 10.3337 8.66732C10.3337 8.39118 10.1098 8.16732 9.83366 8.16732H5.83366ZM5.33366 6.00065C5.33366 5.72451 5.55752 5.50065 5.83366 5.50065H9.83366C10.1098 5.50065 10.3337 5.72451 10.3337 6.00065C10.3337 6.27679 10.1098 6.50065 9.83366 6.50065H5.83366C5.55752 6.50065 5.33366 6.27679 5.33366 6.00065Z" fill="#556EA2"/>
</svg>
