<svg width="16" height="17" viewBox="0 0 16 17" fill="none" xmlns="http://www.w3.org/2000/svg">
<g id="Linear / Messages, Conversation / Pen">
<path id="Vector" d="M9.57337 3.21908L10.1913 2.60117C11.2151 1.57736 12.875 1.57736 13.8988 2.60117C14.9226 3.62497 14.9226 5.28488 13.8988 6.30868L13.2809 6.9266M9.57337 3.21908C9.57337 3.21908 9.65061 4.53216 10.8092 5.69076C11.9678 6.84936 13.2809 6.9266 13.2809 6.9266M9.57337 3.21908L3.89254 8.89991C3.50777 9.28469 3.31538 9.47707 3.14993 9.6892C2.95475 9.93943 2.78742 10.2102 2.65089 10.4967C2.53515 10.7395 2.44911 10.9976 2.27704 11.5139L1.54787 13.7014M13.2809 6.9266L7.60006 12.6074C7.21529 12.9922 7.0229 13.1846 6.81077 13.35C6.56054 13.5452 6.28979 13.7126 6.00331 13.8491C5.76046 13.9648 5.50234 14.0509 4.98611 14.2229L2.79861 14.9521M2.79861 14.9521L2.26389 15.1303C2.00985 15.215 1.72977 15.1489 1.54042 14.9596C1.35106 14.7702 1.28495 14.4901 1.36963 14.2361L1.54787 13.7014M2.79861 14.9521L1.54787 13.7014" stroke="#2C364E" stroke-width="1.5"/>
</g>
</svg>
