<svg width="25" height="25" viewBox="0 0 25 25" fill="none" xmlns="http://www.w3.org/2000/svg">
<g id="Bold / Users / User Check">
<path id="Vector" d="M16.75 6.5C16.75 8.70914 14.9591 10.5 12.75 10.5C10.5409 10.5 8.75 8.70914 8.75 6.5C8.75 4.29086 10.5409 2.5 12.75 2.5C14.9591 2.5 16.75 4.29086 16.75 6.5Z" fill="#F9533A"/>
<path id="Subtract" d="M16.4282 14.0028C15.9551 14.0085 15.5142 14.0258 15.1299 14.0774C14.487 14.1639 13.7834 14.3705 13.2019 14.9519C12.6205 15.5333 12.4139 16.237 12.3275 16.8799C12.2498 17.4576 12.2499 18.1635 12.25 18.914V19.086C12.2499 19.8365 12.2498 20.5424 12.3275 21.1201C12.3881 21.5712 12.5079 22.0522 12.7749 22.5C12.7666 22.5 12.7583 22.5 12.75 22.5C4.75 22.5 4.75 20.4853 4.75 18C4.75 15.5147 8.33172 13.5 12.75 13.5C14.0762 13.5 15.327 13.6815 16.4282 14.0028Z" fill="#F9533A"/>
<path id="Vector_2" fill-rule="evenodd" clip-rule="evenodd" d="M17.25 22.5C15.6001 22.5 14.7751 22.5 14.2626 21.9874C13.75 21.4749 13.75 20.6499 13.75 19C13.75 17.3501 13.75 16.5251 14.2626 16.0126C14.7751 15.5 15.6001 15.5 17.25 15.5C18.8999 15.5 19.7249 15.5 20.2374 16.0126C20.75 16.5251 20.75 17.3501 20.75 19C20.75 20.6499 20.75 21.4749 20.2374 21.9874C19.7249 22.5 18.8999 22.5 17.25 22.5ZM19.218 18.2458C19.4458 18.018 19.4458 17.6487 19.218 17.4209C18.9902 17.193 18.6209 17.193 18.3931 17.4209L16.4722 19.3417L16.1069 18.9764C15.8791 18.7486 15.5098 18.7486 15.282 18.9764C15.0542 19.2042 15.0542 19.5736 15.282 19.8014L16.0597 20.5791C16.2875 20.807 16.6569 20.807 16.8847 20.5791L19.218 18.2458Z" fill="#F9533A"/>
</g>
</svg>
