<svg width="16" height="16" viewBox="0 0 16 16" fill="none" xmlns="http://www.w3.org/2000/svg">
<path d="M6.49967 7.99935C6.49967 7.17092 7.17125 6.49935 7.99967 6.49935C8.8281 6.49935 9.49967 7.17092 9.49967 7.99935C9.49967 8.82778 8.8281 9.49935 7.99967 9.49935C7.17125 9.49935 6.49967 8.82778 6.49967 7.99935Z" fill="#556EA2"/>
<path fill-rule="evenodd" clip-rule="evenodd" d="M1.33301 7.99935C1.33301 9.09227 1.61632 9.46033 2.18294 10.1965C3.31432 11.6663 5.21175 13.3327 7.99967 13.3327C10.7876 13.3327 12.685 11.6663 13.8164 10.1965C14.383 9.46033 14.6663 9.09227 14.6663 7.99935C14.6663 6.90643 14.383 6.53837 13.8164 5.80224C12.685 4.33239 10.7876 2.66602 7.99967 2.66602C5.21175 2.66602 3.31432 4.33239 2.18294 5.80224C1.61632 6.53837 1.33301 6.90643 1.33301 7.99935ZM7.99967 5.49935C6.61896 5.49935 5.49967 6.61864 5.49967 7.99935C5.49967 9.38006 6.61896 10.4993 7.99967 10.4993C9.38039 10.4993 10.4997 9.38006 10.4997 7.99935C10.4997 6.61864 9.38039 5.49935 7.99967 5.49935Z" fill="#556EA2"/>
</svg>
