<svg width="15" height="21" viewBox="0 0 15 21" fill="none" xmlns="http://www.w3.org/2000/svg">
<path d="M0.44825 1.79918C1.05046 0.5 3.11697 0.5 7.25 0.5C11.383 0.5 13.4495 0.5 14.0517 1.79918C14.1035 1.91086 14.1472 2.02686 14.1823 2.1461C14.5914 3.5333 13.1302 5.14111 10.2077 8.35674L8.25 10.5L10.2077 12.6433C13.1302 15.8589 14.5914 17.4667 14.1823 18.8539C14.1472 18.9731 14.1035 19.0891 14.0517 19.2008C13.4495 20.5 11.383 20.5 7.25 20.5C3.11697 20.5 1.05046 20.5 0.44825 19.2008C0.396485 19.0891 0.352817 18.9731 0.317653 18.8539C-0.0914338 17.4667 1.36981 15.8589 4.2923 12.6433L6.25 10.5L4.2923 8.35674C1.36981 5.14111 -0.0914338 3.5333 0.317653 2.1461C0.352817 2.02686 0.396485 1.91086 0.44825 1.79918Z" fill="#F9533A"/>
</svg>
