<svg width="25" height="25" viewBox="0 0 25 25" fill="none" xmlns="http://www.w3.org/2000/svg">
<g id="Bold / Time / Hourglass">
<path id="Vector" d="M5.44825 3.79918C6.05046 2.5 8.11697 2.5 12.25 2.5C16.383 2.5 18.4495 2.5 19.0517 3.79918C19.1035 3.91086 19.1472 4.02686 19.1823 4.1461C19.5914 5.5333 18.1302 7.14111 15.2077 10.3567L13.25 12.5L15.2077 14.6433C18.1302 17.8589 19.5914 19.4667 19.1823 20.8539C19.1472 20.9731 19.1035 21.0891 19.0517 21.2008C18.4495 22.5 16.383 22.5 12.25 22.5C8.11697 22.5 6.05046 22.5 5.44825 21.2008C5.39649 21.0891 5.35282 20.9731 5.31765 20.8539C4.90857 19.4667 6.36981 17.8589 9.2923 14.6433L11.25 12.5L9.2923 10.3567C6.36981 7.14111 4.90857 5.5333 5.31765 4.1461C5.35282 4.02686 5.39649 3.91086 5.44825 3.79918Z" fill="#F9533A"/>
</g>
</svg>
