<svg width="24" height="25" viewBox="0 0 24 25" fill="none" xmlns="http://www.w3.org/2000/svg">
<g id="Bold / Nature, Travel / Suitcase">
<path id="Vector" fill-rule="evenodd" clip-rule="evenodd" d="M12.052 1.75H11.948C11.0495 1.74997 10.3003 1.74995 9.70552 1.82991C9.07773 1.91432 8.51093 2.09999 8.05546 2.55546C7.59999 3.01093 7.41432 3.57773 7.32991 4.20552C7.24995 4.8003 7.24997 5.54951 7.25 6.44799V6.52572C5.22882 6.59185 4.01511 6.82803 3.17157 7.67157C2 8.84315 2 10.7288 2 14.5C2 18.2712 2 20.1569 3.17157 21.3284C4.34315 22.5 6.22876 22.5 10 22.5H14C17.7712 22.5 19.6569 22.5 20.8284 21.3284C22 20.1569 22 18.2712 22 14.5C22 10.7288 22 8.84315 20.8284 7.67157C19.9849 6.82803 18.7712 6.59185 16.75 6.52572V6.44801C16.75 5.54954 16.7501 4.8003 16.6701 4.20552C16.5857 3.57773 16.4 3.01093 15.9445 2.55546C15.4891 2.09999 14.9223 1.91432 14.2945 1.82991C13.6997 1.74995 12.9505 1.74997 12.052 1.75ZM15.25 6.50189V6.5C15.25 5.53599 15.2484 4.88843 15.1835 4.4054C15.1214 3.94393 15.0142 3.74644 14.8839 3.61612C14.7536 3.4858 14.5561 3.37858 14.0946 3.31654C13.6116 3.2516 12.964 3.25 12 3.25C11.036 3.25 10.3884 3.2516 9.90539 3.31654C9.44393 3.37858 9.24644 3.4858 9.11612 3.61612C8.9858 3.74644 8.87858 3.94393 8.81654 4.4054C8.7516 4.88843 8.75 5.53599 8.75 6.5V6.50189C9.14203 6.5 9.55807 6.5 10 6.5H14C14.4419 6.5 14.858 6.5 15.25 6.50189ZM17 9.5C17 10.0523 16.5523 10.5 16 10.5C15.4477 10.5 15 10.0523 15 9.5C15 8.94772 15.4477 8.5 16 8.5C16.5523 8.5 17 8.94772 17 9.5ZM8 10.5C8.55228 10.5 9 10.0523 9 9.5C9 8.94772 8.55228 8.5 8 8.5C7.44772 8.5 7 8.94772 7 9.5C7 10.0523 7.44772 10.5 8 10.5Z" fill="#F9533A"/>
</g>
</svg>
