<svg width="20" height="21" viewBox="0 0 20 21" fill="none" xmlns="http://www.w3.org/2000/svg">
<path d="M11.9666 3.89896L12.739 3.12656C14.0187 1.84681 16.0936 1.84681 17.3734 3.12656C18.6531 4.40632 18.6531 6.48121 17.3734 7.76096L16.601 8.53336L9.49992 15.6344C9.01895 16.1154 8.77847 16.3558 8.51331 16.5627C8.20052 16.8066 7.86208 17.0158 7.50398 17.1865C7.20042 17.3311 6.87777 17.4387 6.23249 17.6538L3.4981 18.5652L2.8297 18.788C2.51215 18.8939 2.16205 18.8112 1.92536 18.5746C1.68867 18.3379 1.60603 17.9878 1.71188 17.6702L1.93468 17.0018L2.84614 14.2674C3.06123 13.6221 3.16878 13.2995 3.31346 12.9959C3.48412 12.6378 3.69328 12.2994 3.93725 11.9866C4.14407 11.7215 4.38456 11.481 4.86552 11L11.9666 3.89896Z" fill="white"/>
<path d="M11.9666 3.89896L12.739 3.12656C14.0187 1.84681 16.0936 1.84681 17.3734 3.12656C18.6531 4.40632 18.6531 6.48121 17.3734 7.76096L16.601 8.53336M11.9666 3.89896C11.9666 3.89896 12.0631 5.54031 13.5114 6.98856C14.9596 8.43681 16.601 8.53336 16.601 8.53336M11.9666 3.89896L4.86552 11C4.38456 11.481 4.14407 11.7215 3.93725 11.9866C3.69328 12.2994 3.48412 12.6378 3.31346 12.9959C3.16878 13.2995 3.06123 13.6221 2.84614 14.2674L1.93468 17.0018M16.601 8.53336L9.49992 15.6344C9.01895 16.1154 8.77847 16.3558 8.51331 16.5627C8.20052 16.8066 7.86208 17.0158 7.50398 17.1865C7.20042 17.3311 6.87777 17.4387 6.23249 17.6538L3.4981 18.5652M3.4981 18.5652L2.8297 18.788C2.51215 18.8939 2.16205 18.8112 1.92536 18.5746C1.68867 18.3379 1.60603 17.9878 1.71188 17.6702L1.93468 17.0018M3.4981 18.5652L1.93468 17.0018" stroke="#556EA2" stroke-width="1.5"/>
</svg>
