<svg width="20" height="21" viewBox="0 0 20 21" fill="none" xmlns="http://www.w3.org/2000/svg">
<path d="M17.0832 5.5H2.9165" stroke="#FF3333" stroke-width="1.5" stroke-linecap="round"/>
<path d="M15.6946 7.58325L15.3113 13.3325C15.1638 15.5449 15.09 16.6511 14.3692 17.3255C13.6483 17.9999 12.5397 17.9999 10.3223 17.9999H9.67787C7.46054 17.9999 6.35187 17.9999 5.63103 17.3255C4.91019 16.6511 4.83644 15.5449 4.68895 13.3325L4.30566 7.58325" stroke="#FF3333" stroke-width="1.5" stroke-linecap="round"/>
<path d="M7.9165 9.66675L8.33317 13.8334" stroke="#FF3333" stroke-width="1.5" stroke-linecap="round"/>
<path d="M12.0832 9.66675L11.6665 13.8334" stroke="#FF3333" stroke-width="1.5" stroke-linecap="round"/>
<path d="M5.4165 5.5C5.46307 5.5 5.48635 5.5 5.50746 5.49947C6.19366 5.48208 6.79902 5.04576 7.03252 4.40027C7.0397 4.38041 7.04706 4.35832 7.06179 4.31415L7.14269 4.07143C7.21176 3.86423 7.24629 3.76063 7.2921 3.67267C7.47485 3.32173 7.81296 3.07803 8.20368 3.01564C8.30161 3 8.41081 3 8.62922 3H11.3705C11.5889 3 11.6981 3 11.796 3.01564C12.1867 3.07803 12.5248 3.32173 12.7076 3.67267C12.7534 3.76063 12.7879 3.86423 12.857 4.07143L12.9379 4.31415C12.9526 4.35826 12.96 4.38042 12.9672 4.40027C13.2006 5.04576 13.806 5.48208 14.4922 5.49947C14.5133 5.5 14.5366 5.5 14.5832 5.5" stroke="#FF3333" stroke-width="1.5"/>
</svg>
